<svg xmlns="http://www.w3.org/2000/svg" width="24px" height="24px" viewBox="0 0 24 24">
    <path fill="currentColor" d="M5.355 14.455a0.289 0.289 0 0 0 0.266 0.178 0.293 0.293 0 0 0 0.111-0.023l3.463-1.452a0.289 0.289 0 0 0 0.006-0.529l-3.463-1.555a0.289 0.289 0 1 0-0.236 0.527l2.857 1.282-2.850 1.195a0.289 0.289 0 0 0-0.154 0.377z m4.011 0.295H6.615a0.289 0.289 0 0 0 0 0.577h2.751a0.289 0.289 0 0 0 0-0.577z m0 0.927H6.615a0.289 0.289 0 0 0 0 0.577h2.751a0.289 0.289 0 0 0 0-0.577z m11.121-4.472l-3.127 1.371a0.289 0.289 0 0 0-0.009 0.525l3.128 1.504a0.283 0.283 0 0 0 0.125 0.029 0.289 0.289 0 0 0 0.125-0.549l-2.562-1.23 2.554-1.118a0.289 0.289 0 1 0-0.234-0.532z m0.116 3.545H17.115a0.289 0.289 0 0 0 0 0.577h3.488a0.289 0.289 0 0 0 0-0.577z m0 0.927H17.115a0.289 0.289 0 0 0 0 0.577h3.488a0.289 0.289 0 0 0 0-0.577zM15.156 12.607h-3.825a0.288 0.288 0 0 0-0.251 0.430l1.910 3.407a0.289 0.289 0 0 0 0.504 0l1.911-3.407a0.289 0.289 0 0 0-0.252-0.430z m-1.911 3.104l-1.299-2.327h2.839z" stroke-width="0.5" stroke="currentColor" />
    <path fill="currentColor" d="M20.918 7.861H15.218c-0.160-0.355-0.465-0.667-0.866-0.892L18.854 0.453a0.289 0.289 0 0 0-0.475-0.328L13.810 6.733a3.467 3.467 0 0 0-1.066-0.164 3.558 3.558 0 0 0-0.748 0.079L5.641 0.111a0.289 0.289 0 0 0-0.412 0.403L11.377 6.849c-0.520 0.231-0.918 0.590-1.110 1.015H3.109a2.155 2.155 0 0 0-2.156 2.155v9.731a2.155 2.155 0 0 0 2.156 2.157h6.294l-0.467 1.103c-0.297 0.702 0.531 1.340 1.134 0.876l2.571-1.978h8.284a2.155 2.155 0 0 0 2.156-2.155V10.016a2.155 2.155 0 0 0-2.156-2.155z m0.818 10.890a1.426 1.426 0 0 1-1.426 1.426H13.753l-2.296 1.725-1.808 1.358 0.573-1.358 0.728-1.725H4.638a1.426 1.426 0 0 1-1.428-1.426V10.329a1.426 1.426 0 0 1 1.426-1.426h15.676a1.426 1.426 0 0 1 1.426 1.426z" stroke-width="0" stroke="currentColor" />
</svg>